<svg width="15" height="10" viewBox="0 0 15 10" fill="none" xmlns="http://www.w3.org/2000/svg">
<path d="M14.6174 9.66979C14.0949 10.0409 11.969 10.1513 11.4546 9.72745C11.1723 9.49515 10.9142 9.20424 10.669 8.92763C10.4977 8.734 10.3029 8.64 10.1557 8.42996C10.0358 8.2579 9.95325 8.05513 9.82649 7.88588C9.61287 7.60107 9.28366 7.35892 9.02311 7.70679C8.63124 8.22977 9.08494 9.25792 8.56217 9.64892C8.38681 9.7802 8.21001 9.81817 7.99101 9.79942L7.50588 9.8245C7.22072 9.83083 6.76929 9.83364 6.44525 9.7673C6.08337 9.69346 5.78497 9.46936 5.45824 9.3048C4.83745 8.99279 4.24583 8.56756 3.79585 7.97848C2.57123 6.37437 0.926212 4.16805 0.287228 2.15113C0.155502 1.73669 -0.191286 0.916467 0.137718 0.560858C0.585214 0.192356 2.78237 0.0880414 3.12481 0.658375C3.26419 0.889743 3.35187 1.22941 3.4503 1.49172C3.57272 1.81897 3.63931 2.12769 3.8308 2.41743C4.00036 2.67459 4.12568 2.93291 4.25699 3.21491C4.40443 3.53114 4.5434 3.83447 4.72268 4.12585C4.84428 4.32393 5.16584 4.71752 5.36891 4.74706C5.86479 4.81902 5.83377 3.45285 5.79696 3.11904C5.76181 2.79765 5.7525 2.45681 5.76181 2.13074C5.76987 1.85272 5.792 1.46101 5.64663 1.23387C5.40985 0.863488 4.88253 1.1408 4.84118 0.643138C4.92844 0.501785 4.90983 0.376373 5.49174 0.159304C5.94978 -0.0115852 6.2457 -0.0061938 6.54782 0.0212328C7.16406 0.0772582 7.81731 -0.111915 8.41183 0.11453C8.97968 0.331365 8.892 1.24629 8.87298 1.79482C8.84754 2.54378 8.87463 3.27446 8.87298 4.0342C8.87215 4.38043 8.86016 4.71682 9.23197 4.68892C9.58103 4.66243 9.61639 4.3298 9.78286 4.05506C10.0147 3.67226 10.227 3.2843 10.463 2.90267C10.7808 2.38719 10.8766 1.80795 11.1758 1.27981C11.2829 1.09064 11.3749 0.677831 11.5398 0.528508C11.6647 0.415754 11.9016 0.464044 12.0526 0.464044H12.4116C12.6866 0.467795 12.967 0.472249 13.2493 0.483501C13.656 0.499441 14.1116 0.399346 14.5151 0.46381C16.2554 0.742296 12.3276 4.96248 12.5319 5.71543C12.6734 6.23536 13.5692 6.81788 13.8926 7.24405C14.3238 7.81087 15.6454 8.94052 14.6174 9.66979Z" fill="#4C75A3"/>
</svg>
