<svg width="15" height="15" viewBox="0 0 15 15" fill="none" xmlns="http://www.w3.org/2000/svg">
<path fill-rule="evenodd" clip-rule="evenodd" d="M7.5314 14.8711H7.52831C6.27834 14.8707 5.05011 14.5586 3.95924 13.9664L0 15L1.05956 11.1484C0.405971 10.0211 0.0620569 8.74244 0.0626174 7.43242C0.0642557 3.33422 3.41469 0 7.53133 0C9.52928 0.000858173 11.4045 0.77493 12.8146 2.1799C14.2246 3.5848 15.0008 5.45226 15 7.43828C14.9983 11.5356 11.6492 14.8694 7.5314 14.8711V14.8711ZM4.14274 12.6207L4.36941 12.7546C5.3225 13.3175 6.41503 13.6153 7.52894 13.6157H7.53146C10.9529 13.6157 13.7376 10.8443 13.739 7.43789C13.7397 5.78715 13.0946 4.23502 11.9226 3.06728C10.7506 1.89954 9.19196 1.25613 7.5339 1.25556C4.1098 1.25556 1.32504 4.0267 1.32368 7.43288C1.3232 8.60021 1.65139 9.73704 2.27278 10.7206L2.42038 10.9544L1.79327 13.2341L4.14274 12.6207ZM11.294 9.20573C11.2474 9.12826 11.123 9.08179 10.9364 8.98879C10.7497 8.89584 9.83226 8.44661 9.66117 8.38457C9.49015 8.32262 9.36569 8.29166 9.2413 8.47752C9.11691 8.66342 8.75928 9.08179 8.65041 9.20573C8.54154 9.32964 8.43268 9.3452 8.24614 9.25221C8.05952 9.15926 7.45821 8.96316 6.7454 8.33042C6.19062 7.83796 5.8161 7.22982 5.70724 7.04388C5.59838 6.85795 5.69563 6.75748 5.78906 6.66487C5.87302 6.58163 5.97569 6.4479 6.06899 6.33949C6.16229 6.23108 6.19339 6.15356 6.2556 6.0297C6.3178 5.9057 6.2867 5.79729 6.24004 5.70432C6.19339 5.61135 5.82018 4.69722 5.66467 4.32535C5.51318 3.96322 5.35934 4.01227 5.2448 4.00655C5.13607 4.00112 5.01152 3.99997 4.88713 3.99997C4.76273 3.99997 4.56054 4.04646 4.38949 4.23239C4.21844 4.41832 3.73635 4.86763 3.73635 5.7817C3.73635 6.69584 4.40503 7.57894 4.49835 7.70287C4.59165 7.82687 5.81424 9.70268 7.68629 10.5071C8.13152 10.6985 8.4791 10.8128 8.75015 10.8983C9.19718 11.0397 9.60404 11.0198 9.92554 10.9719C10.2841 10.9186 11.0296 10.5227 11.1852 10.0889C11.3406 9.65501 11.3406 9.28316 11.294 9.20573V9.20573Z" fill="#25D366"/>
</svg>
